:SAMPLES-PER-SECOND 30
:FULLY-SPECIFIED
:DEGREES
398
root  -7.00862 24.2013 -29.2462 -144.878 -23.3661 179.655
RightUpLeg  -90.7952 -6.74105 18.6448
RightLeg  87.8876 0.436492 3.23814
RightFoot  -24.9856 -1.06369 -4.42074
RightToes  -11.7895 -0.0405672 -0.107759
Spine  26.3277 -1.36258 5.68917
Spine1  38.3616 -7.53662 8.64958
HEad  -11.0773 -17.1638 43.6631
LeftShoulder1  0 -2.42657e-020 -4.95415e-022
LeftArm  21.6667 -68.9994 -126.147
LeftForeArm  66.7366 -13.339 -2.3328
LeftHand  1.3463 -13.8448 -11.4305
RightShoulder  0 2.42657e-020 1.07489e-018
RightArm  -85.0287 66.5588 59.2842
RightForeArm  17.7757 11.3773 2.03311
RightHand  0.290302 20.5658 1.97066
LeftUpLeg  -62.604 -8.82279 12.5688
LeftLeg  107.201 -3.80769 15.4674
LeftFoot  -16.522 -1.22797 -8.44277
LeftToes  -8.84214 8.63562e-007 1.17448e-007
399
root  -8.24248 24.657 -30.6915 -145.839 -20.2814 177.236
RightUpLeg  -85.4367 -7.52361 13.3951
RightLeg  88.1805 0.43629 3.40277
RightFoot  -27.5388 -1.0212 -3.78802
RightToes  -15.6785 -0.0587007 -0.141201
Spine  26.2742 -2.27617 4.67847
Spine1  38.9991 -7.30774 7.75403
HEad  -12.6636 -18.8725 44.1333
LeftShoulder1  0 -2.42657e-020 -4.95415e-022
LeftArm  8.02018 -64.2311 -108.023
LeftForeArm  60.5354 -19.565 -3.54008
LeftHand  0.869668 -14.8972 -7.01769
RightShoulder  0 2.42657e-020 1.07489e-018
RightArm  -79.3799 61.7473 54.5502
RightForeArm  15.3379 17.6898 3.21962
RightHand  1.06807 23.5287 5.49671
LeftUpLeg  -72.3018 -10.0692 15.6028
LeftLeg  104.146 -2.64476 14.063
LeftFoot  -18.7307 -1.34009 -8.11211
LeftToes  -5.84175 8.63562e-007 1.17448e-007
400
root  -9.53298 25.119 -32.2955 -148.12 -18.1835 174.821
RightUpLeg  -78.1058 -7.84451 7.46105
RightLeg  87.9976 0.357511 2.50753
RightFoot  -30.3661 -0.800578 -2.57198
RightToes  -19.4234 -0.0782678 -0.17217
Spine  25.7613 -3.33466 3.77747
Spine1  39.1594 -7.382 6.89153
HEad  -13.0973 -21.2071 43.848
LeftShoulder1  0 -2.42657e-020 -4.95415e-022
LeftArm  -1.47962 -57.2433 -94.8234
LeftForeArm  53.4624 -25.9556 -4.88448
LeftHand  0.521898 -13.6091 -4.74405
RightShoulder  0 2.42657e-020 1.07489e-018
RightArm  -74.0885 55.0896 52.4077
RightForeArm  11.2884 26.1014 4.94828
RightHand  1.26365 24.5605 6.17208
LeftUpLeg  -79.3284 -10.284 18.1789
LeftLeg  96.723 -0.615906 11.5645
LeftFoot  -18.3751 -1.07084 -6.6135
LeftToes  -7.84997 8.63562e-007 1.17448e-007
401
root  -10.8394 25.5051 -34.005 -150.98 -16.2395 173.12
RightUpLeg  -70.0039 -7.06987 2.09219
RightLeg  87.391 0.258993 1.38346
RightFoot  -32.9467 -0.494787 -1.2956
RightToes  -22.7318 -0.0972051 -0.198416
Spine  24.5827 -4.016 2.7055
Spine1  38.489 -7.1021 5.46842
HEad  -12.5182 -22.849 43.4583
LeftShoulder1  0 -2.42657e-020 -4.95415e-022
LeftArm  -9.18327 -49.1224 -87.5232
LeftForeArm  50.3355 -31.3244 -6.12804
LeftHand  0.457102 -12.6834 -4.48357
RightShoulder  0 2.42657e-020 1.07489e-018
RightArm  -69.595 48.7652 52.4293
RightForeArm  21.0588 34.8554 7.05446
RightHand  0.387162 23.5215 2.23004
LeftUpLeg  -82.8067 -9.3609 19.3519
LeftLeg  85.2548 1.36074 9.06078
LeftFoot  -15.9848 -0.674299 -4.79978
LeftToes  -9.89509 8.63562e-007 1.17448e-007
402
root  -12.0082 25.8537 -35.8589 -153.933 -14.2694 172.392
RightUpLeg  -62.3833 -6.28116 -1.30153
RightLeg  87.0542 0.186012 0.690975
RightFoot  -33.4639 -0.248439 -0.448865
RightToes  -27.5251 -0.127255 -0.234402
Spine  23.0104 -4.41861 1.41338
Spine1  37.2568 -7.09425 3.79545
HEad  -11.0664 -23.4393 43.1529
LeftShoulder1  0 -2.42657e-020 -4.95415e-022
LeftArm  -14.9754 -41.2513 -82.2029
LeftForeArm  46.491 -35.5659 -7.22029
LeftHand  0.340508 -11.2131 -3.83994
RightShoulder  0 2.42657e-020 1.07489e-018
RightArm  -65.646 42.9509 56.7324
RightForeArm  29.1455 43.8271 9.75703
RightHand  -0.459311 21.5516 -2.04356
LeftUpLeg  -82.6055 -7.09542 18.554
LeftLeg  70.1883 3.30388 7.53667
LeftFoot  -13.6198 -0.426089 -3.56693
LeftToes  -13.2668 8.63562e-007 1.17448e-007
403
root  -12.991 26.1322 -37.903 -156.795 -11.9452 173.285
RightUpLeg  -55.9385 -5.54021 -1.97421
RightLeg  87.1125 0.0588101 -0.407847
RightFoot  -30.994 0.00374367 0.391059
RightToes  -35.4904 -0.183498 -0.288257
Spine  21.4615 -4.30414 0.503474
Spine1  35.6789 -7.08663 3.37721
HEad  -10.0627 -24.462 43.5289
LeftShoulder1  0 -2.42657e-020 -4.95415e-022
LeftArm  -19.1567 -34.6774 -80.4904
LeftForeArm  43.6351 -38.2221 -7.96672
LeftHand  0.252321 -10.0436 -3.24305
RightShoulder  0 2.42657e-020 1.07489e-018
RightArm  -59.8374 36.4121 61.4584
RightForeArm  31.3805 52.9139 13.5295
RightHand  -1.25157 20.0381 -6.70759
LeftUpLeg  -79.9132 -2.28133 14.9177
LeftLeg  54.168 2.91865 3.5243
LeftFoot  -11.7025 -0.208591 -2.03522
LeftToes  -20.6466 8.63562e-007 1.17448e-007
404
root  -14.1164 26.1318 -39.929 -159.184 -8.49602 174.167
RightUpLeg  -50.9392 -6.3361 -2.62102
RightLeg  88.1258 -0.0225014 -1.33952
RightFoot  -28.717 0.182624 1.09099
RightToes  -41.9402 -0.234165 -0.325818
Spine  20.7619 -3.77548 0.380421
Spine1  35.0583 -5.5035 2.62932
HEad  -10.2084 -25.0275 42.7696
LeftShoulder1  0 -2.42657e-020 -4.95415e-022
LeftArm  -20.7883 -31.3346 -81.6358
LeftForeArm  40.3078 -40.0075 -8.50224
LeftHand  0.138383 -8.42191 -2.25112
RightShoulder  0 2.42657e-020 1.07489e-018
RightArm  -53.5307 33.5473 60.9651
RightForeArm  42.4636 55.5147 14.9166
RightHand  -2.46378 17.1482 -15.8698
LeftUpLeg  -78.1783 3.01006 8.38098
LeftLeg  43.581 -0.971504 -0.818205
LeftFoot  -9.65138 -0.045438 -0.538218
LeftToes  -30.827 8.63562e-007 1.17448e-007
